<svg width="40" height="89" viewBox="0 0 40 89" fill="none" xmlns="http://www.w3.org/2000/svg">
<path d="M28.0038 35.7323C28.145 35.0007 28.4819 34.3568 29.1557 34.2593C29.9273 34.152 30.5467 34.8739 30.9705 35.547C33.6547 39.8004 34.9044 44.8244 37.0561 49.3802C37.3387 49.9753 37.6647 50.5899 38.2189 50.9314C38.7731 51.2728 39.6316 51.1753 39.9033 50.5704C40.0663 50.2192 39.9902 49.8095 39.9142 49.4388C39.0231 44.9513 38.0994 40.4637 36.8714 36.0543C35.6325 31.6058 34.035 27.1378 31.1226 23.5965C26.6562 18.1627 19.0384 15.5093 12.3333 17.3921C7.18228 18.8359 2.85715 22.9819 1.00973 28.0743C-1.17457 34.0837 0.564177 41.3417 2.63981 47.1267C2.86802 47.7511 3.16143 48.434 3.76999 48.6876C4.58503 49.0291 5.53047 48.3364 5.81302 47.4779C6.09556 46.6194 5.91082 45.6927 5.72608 44.8147C4.7915 40.2589 4.12861 35.2251 6.37811 31.1765C6.55198 30.8644 6.7802 30.5327 7.11708 30.4644C7.83431 30.3181 8.20379 31.3034 8.27986 32.0448C8.97536 39.098 10.0073 50.307 10.6919 57.3602C11.6591 67.1937 13.3116 72.9495 16.3435 82.344C17.0173 84.4317 17.8432 86.5584 19.4407 88.0314C19.9732 88.5192 20.6469 88.9387 21.3533 88.8216C22.7443 88.5875 23.016 86.6852 22.8964 85.2511C21.3533 74.9382 18.2233 66.7547 18.1799 57.3602C18.1799 56.0042 18.5059 54.2873 19.8099 54.0141C20.5598 53.858 21.2987 54.3068 21.8638 54.8336C23.0592 55.9457 23.8199 57.448 24.4828 58.9504C27.7647 66.3743 29.6919 73.3216 32.1919 79.3216C32.9635 80.8532 34.5458 84.8609 35.9042 85.8755C36.7953 86.5389 38.0559 86.9486 38.9905 86.3437C40.3815 85.4657 39.9903 83.3293 39.436 81.7587C34.2089 67.1742 28.5797 52.3947 27.906 36.8737C27.8951 36.5128 27.906 36.1031 27.982 35.7226L28.0038 35.7323Z" fill="#F5F5F4"/>
<path d="M18.7886 0.0590821C26.8085 -0.838421 29.9274 8.72194 23.8092 12.9363C15.7566 17.336 9.67101 2.09798 18.6256 0.0883485L18.7886 0.0590821Z" fill="#F5F5F4"/>
</svg>
