<svg width="40" height="89" viewBox="0 0 40 89" fill="none" xmlns="http://www.w3.org/2000/svg">
<path d="M28.0038 35.7323C28.145 35.0007 28.4819 34.3568 29.1557 34.2593C29.9273 34.152 30.5467 34.8739 30.9705 35.547C33.6547 39.8004 34.9044 44.8244 37.0561 49.3802C37.3387 49.9753 37.6647 50.5899 38.2189 50.9314C38.7731 51.2728 39.6316 51.1753 39.9033 50.5704C40.0663 50.2192 39.9902 49.8095 39.9142 49.4388C39.0231 44.9513 38.0994 40.4637 36.8714 36.0543C35.6325 31.6058 34.035 27.1378 31.1226 23.5965C26.6562 18.1627 19.0384 15.5093 12.3333 17.3921C7.18228 18.8359 2.85715 22.9819 1.00973 28.0743C-1.17457 34.0837 0.564177 41.3417 2.63981 47.1267C2.86802 47.7511 3.16143 48.434 3.76999 48.6876C4.58503 49.0291 5.53047 48.3364 5.81302 47.4779C6.09556 46.6194 5.91082 45.6927 5.72608 44.8147C4.7915 40.2589 4.12861 35.2251 6.37811 31.1765C6.55198 30.8644 6.7802 30.5327 7.11708 30.4644C7.83431 30.3181 8.20379 31.3034 8.27986 32.0448C8.97536 39.098 10.0073 50.307 10.6919 57.3602C11.6591 67.1937 13.3116 72.9495 16.3435 82.344C17.0173 84.4317 17.8432 86.5584 19.4407 88.0314C19.9732 88.5192 20.6469 88.9387 21.3533 88.8216C22.7443 88.5875 23.016 86.6852 22.8964 85.2511C21.3533 74.9382 18.2233 66.7547 18.1799 57.3602C18.1799 56.0042 18.5059 54.2873 19.8099 54.0141C20.5598 53.858 21.2987 54.3068 21.8638 54.8336C23.0592 55.9457 23.8199 57.448 24.4828 58.9504C27.7647 66.3743 29.6919 73.3216 32.1919 79.3216C32.9635 80.8532 34.5458 84.8609 35.9042 85.8755C36.7953 86.5389 38.0559 86.9486 38.9905 86.3437C40.3815 85.4657 39.9903 83.3293 39.436 81.7587C34.2089 67.1742 28.5797 52.3947 27.906 36.8737C27.8951 36.5128 27.906 36.1031 27.982 35.7226L28.0038 35.7323Z" fill="#F5F5F4"/>
<path d="M18.7886 0.0590821C26.8085 -0.838421 29.9274 8.72194 23.8092 12.9363C15.7566 17.336 9.67101 2.09798 18.6256 0.0883485L18.7886 0.0590821Z" fill="#F5F5F4"/>
<path d="M34.5058 15.386V13.2571H35.2854C35.4365 13.2571 35.5616 13.282 35.6607 13.3319C35.7598 13.3811 35.834 13.448 35.8832 13.5326C35.9324 13.6164 35.957 13.711 35.957 13.8163C35.957 13.905 35.9407 13.9799 35.9081 14.0409C35.8755 14.1012 35.8319 14.1497 35.7771 14.1864C35.7231 14.2224 35.6635 14.2488 35.5983 14.2654V14.2862C35.669 14.2897 35.738 14.3125 35.8052 14.3548C35.8731 14.3964 35.9292 14.4556 35.9736 14.5326C36.018 14.6095 36.0401 14.703 36.0401 14.8132C36.0401 14.922 36.0145 15.0197 35.9632 15.1064C35.9126 15.1923 35.8343 15.2605 35.7283 15.3111C35.6222 15.361 35.4868 15.386 35.3218 15.386H34.5058ZM34.827 15.1105H35.2906C35.4445 15.1105 35.5547 15.0807 35.6212 15.0211C35.6877 14.9615 35.721 14.887 35.721 14.7976C35.721 14.7304 35.704 14.6687 35.6701 14.6126C35.6361 14.5565 35.5876 14.5118 35.5245 14.4785C35.4622 14.4452 35.388 14.4286 35.3021 14.4286H34.827V15.1105ZM34.827 14.1781H35.2574C35.3295 14.1781 35.3943 14.1642 35.4518 14.1365C35.51 14.1088 35.5561 14.07 35.59 14.0201C35.6247 13.9695 35.642 13.9099 35.642 13.8413C35.642 13.7533 35.6112 13.6795 35.5495 13.6199C35.4878 13.5603 35.3932 13.5305 35.2657 13.5305H34.827V14.1781ZM35.1919 16.3215C34.9708 16.3215 34.7602 16.2879 34.5599 16.2207C34.3603 16.1535 34.177 16.0585 34.01 15.9359C33.8437 15.8139 33.6992 15.6694 33.5765 15.5024C33.4545 15.3361 33.3599 15.1531 33.2927 14.9536C33.2255 14.7533 33.1919 14.5426 33.1919 14.3215C33.1919 14.1005 33.2255 13.8901 33.2927 13.6906C33.3599 13.4903 33.4545 13.307 33.5765 13.1407C33.6992 12.9736 33.8437 12.8292 34.01 12.7072C34.177 12.5845 34.3603 12.4896 34.5599 12.4224C34.7602 12.3551 34.9708 12.3215 35.1919 12.3215C35.413 12.3215 35.6233 12.3551 35.8229 12.4224C36.0231 12.4896 36.2064 12.5845 36.3728 12.7072C36.5398 12.8292 36.6843 12.9736 36.8062 13.1407C36.9289 13.307 37.0238 13.4903 37.0911 13.6906C37.1583 13.8901 37.1919 14.1005 37.1919 14.3215C37.1919 14.5426 37.1583 14.7533 37.0911 14.9536C37.0238 15.1531 36.9289 15.3361 36.8062 15.5024C36.6843 15.6694 36.5398 15.8139 36.3728 15.9359C36.2064 16.0585 36.0231 16.1535 35.8229 16.2207C35.6233 16.2879 35.413 16.3215 35.1919 16.3215ZM35.1919 16.0617C35.3845 16.0617 35.5675 16.0322 35.7407 15.9733C35.9147 15.9151 36.0741 15.8326 36.2189 15.7259C36.3645 15.6199 36.4906 15.4944 36.5973 15.3496C36.704 15.2041 36.7865 15.0443 36.8447 14.8704C36.9029 14.6964 36.932 14.5135 36.932 14.3215C36.932 14.1289 36.9029 13.9456 36.8447 13.7716C36.7865 13.5977 36.704 13.4383 36.5973 13.2935C36.4906 13.1486 36.3645 13.0229 36.2189 12.9161C36.0741 12.8094 35.9147 12.7269 35.7407 12.6687C35.5675 12.6105 35.3845 12.5814 35.1919 12.5814C34.9992 12.5814 34.8159 12.6105 34.642 12.6687C34.4681 12.7269 34.3083 12.8094 34.1628 12.9161C34.018 13.0229 33.8922 13.1486 33.7854 13.2935C33.6794 13.4383 33.597 13.5977 33.538 13.7716C33.4798 13.9456 33.4507 14.1289 33.4507 14.3215C33.4507 14.5135 33.4798 14.6964 33.538 14.8704C33.597 15.0443 33.6794 15.2041 33.7854 15.3496C33.8922 15.4944 34.018 15.6199 34.1628 15.7259C34.3083 15.8326 34.4681 15.9151 34.642 15.9733C34.8159 16.0322 34.9992 16.0617 35.1919 16.0617Z" fill="#F5F5F4"/>
</svg>
